<?xml version="1.0" encoding="iso-8859-1"?>
<!-- Generator: Adobe Illustrator 16.0.0, SVG Export Plug-In . SVG Version: 6.00 Build 0)  -->
<!DOCTYPE svg PUBLIC "-//W3C//DTD SVG 1.1//EN" "http://www.w3.org/Graphics/SVG/1.1/DTD/svg11.dtd">
<svg version="1.1" id="Capa_1" xmlns="http://www.w3.org/2000/svg" xmlns:xlink="http://www.w3.org/1999/xlink" x="0px" y="0px"
	 width="570.44px" height="570.44px" viewBox="0 0 570.44 570.44" style="enable-background:new 0 0 570.44 570.44;"
	 xml:space="preserve">
<g>
	<path style="fill:#fff;" d="M551.131,337.593c-18.96-34.73-44.651-49.468-44.651-85.27v-4.211c0-2.325-0.043-6.891,0.703-10.189
		c4.939-21.738,9.939-40.979,9.939-59.309c0-18.642-5.655-39.132-17.479-63.997c-1.451-3.054-2.296-8.201-1.787-11.543
		c0.643-4.216,1.095-8.28,1.095-11.86c0-36.365-28.488-30.526-44.271-52.724c-1.959-2.754-3.795-2.552-4.486,0.759
		c-1.891,9.046-3.929,20.502-3.929,29.859c0,16.23,5.189,32.461,21.071,43.201c2.803,1.892,7.49,4.73,9.963,7.032
		c12.553,11.677,18.446,28.642,18.446,45.582c0,25.122-11.524,52.9-22.418,73.586c-1.573,2.993-5.618,5.723-8.972,6.182
		c-14.792,2.02-29.395,4.462-42.32,4.462c-120.472,0-184.567-83.691-234.249-99.518c-3.219-1.028-4.339-3.807-2.491-6.641
		c14.431-22.099,20.79-41.463,20.79-58.14c0-45.331-42.479-73.042-64.927-83.813c-3.047-1.463-7.001-1.347-8.757,0.104
		c-1.757,1.444-1.016,4.296,1.45,6.609c17.038,15.991,25.943,39.835,25.943,59.247c0,20.906-10.337,39.315-28.697,42.639
		c-3.323,0.6-6.793,0.294-7.668,0s-3.464-0.392-5.765,0c-1.579,0.27-3.158,0.538-4.192,0.538c-34.792,0-45.276-35.802-45.276-67.448
		c0-10.147,0.655-20.998,2.001-29.786c0.514-3.342-0.306-6.016-2.044-6.016c-1.744,0-5.582,1.291-8.372,3.2
		C40.276,23.515,31.298,46.617,31.298,67.003c0,11.61,3.054,23.299,8.507,33.66c1.573,2.993,4.92,7.313,6.952,10.013
		c6.151,8.146,9.804,16.671,9.804,23.721c0,20.074-21.365,37.785-33.226,47.626c-2.601,2.16-5.991,6.39-6.677,9.7
		c-0.795,3.85-1.206,8.728-1.206,13.22c0,10.52,3.201,21.053,13.733,21.053c1.713,0,3.764-0.312,5.961-0.949
		c3.213-0.924,5.869-1.982,6.175-1.688c0.306,0.293,0.502,3.623,2.895,6.01c2.668,2.662,7.197,3.996,11.291,3.996
		c7.283,0,17.081-2.008,23.495-3.243c3.317-0.643,8.188,0.808,10.196,3.531c25.533,34.645-1.561,151.556,45.894,174.426
		c3.042,1.469,5.098,4.854,4.345,8.146l-30.967,135.521c-0.753,3.293,1.34,6.396,4.682,6.922l7.913,1.248
		c3.341,0.526,7.43-1.407,9.137-4.326l51.781-88.446c1.708-2.92,3.703-2.613,4.456,0.686l20.386,89.865
		c0.759,3.293,4.106,6.629,7.491,6.629h2.503c3.378,0,7.136-3.207,8.385-6.347l49.211-123.813c1.249-3.14,4.504-4.241,7.564-2.81
		c7.326,3.427,16.958,5.306,25.196,5.306c24.267,0,54.812-11.664,78.44-19.266c3.219-1.034,5.71,0.882,5.545,4.26l-6.775,142.119
		c-0.159,3.378,2.448,6.67,5.827,6.67h7.754c3.378,0,7.252-3.065,8.647-6.144l46.592-102.902c1.395-3.078,4.749-4.106,7.484-2.117
		l1.677,1.145c2.735,1.982,5.227,6.285,5.557,9.651l9.272,93.158c0.336,3.366,3.341,6.225,6.72,6.401l7.827,0.41
		c3.378,0.178,6.689-2.362,7.473-5.654c13.005-54.554,36.549-90.393,36.549-104.652c0-1.512-0.729-3.023-1.714-4.309
		c-1.591-2.062-4.479-4.811-5.098-7.154c-0.361-1.371-0.6-2.852-0.6-4.333c0-18.947,26.634-61.06,26.634-89.493
		C554.981,349.185,553.237,341.81,551.131,337.593z"/>
</g>
<g>
</g>
<g>
</g>
<g>
</g>
<g>
</g>
<g>
</g>
<g>
</g>
<g>
</g>
<g>
</g>
<g>
</g>
<g>
</g>
<g>
</g>
<g>
</g>
<g>
</g>
<g>
</g>
<g>
</g>
</svg>
