<?xml version="1.0" encoding="iso-8859-1"?>
<!-- Generator: Adobe Illustrator 19.0.0, SVG Export Plug-In . SVG Version: 6.00 Build 0)  -->
<svg version="1.1" id="Capa_1" xmlns="http://www.w3.org/2000/svg" xmlns:xlink="http://www.w3.org/1999/xlink" x="0px"
  y="0px" viewBox="0 0 505.18 505.18" style="enable-background:new 0 0 505.18 505.18;" xml:space="preserve">
  <g transform="matrix(1.25 0 0 -1.25 0 45)">
    <g>
      <g>
        <path style="fill:#00838F;" d="M380.387-95.155c-3.686,20.116-22.039,38.343-44.51,38.343H119.7
				c-2.719,0-5.939-1.536-9.444-4.153c-5.769,2.571-11.844,4.153-18.261,4.153c-11.378,0-53.84-4.267-63.317-22.756L2.406-128.549
				c-7.68-22.346,3.516-54.409,26.578-54.409c6.485,0,17.465,0.08,30.322,0.193c18.773-3.254,40.983-17.112,61.85-32.404
				c24.121-50.142,33.223-126.089,44.055-126.089c10.968,0,28.774,50.165,33.132,79.644h103.811
				c1.673-28.206,8.772-79.644,22.346-79.644c11.548,0,36.864,55.558,49.459,139.241c3.584,18.489,6.053,42.075,6.997,71.908
				c0.262-1.946,0.432-4.016,0.432-6.349V-272.99c0-6.292,5.086-11.378,11.378-11.378c6.292,0,11.378,5.086,11.378,11.378v136.533
				C404.144-115.897,395.622-101.72,380.387-95.155" />
        <path style="fill:#4DD0E1;" d="M74.189-113.701c0-6.281-5.097-11.378-11.378-11.378c-6.281,0-11.378,5.097-11.378,11.378
				s5.097,11.378,11.378,11.378C69.091-102.323,74.189-107.421,74.189-113.701" />
        <path style="fill:#4DD0E1;" d="M108.322-102.323c34.133,0,76.322,18.489,76.322,64c0,22.756-17.658,46.66-50.722,47.411
				c-46.899,1.047-66.844-31.767-59.733-36.033c6.007-3.607,22.756,21.333,51.2,15.644c21.174-4.233,23.37-17.829,18.967-26.544
				c-5.131-10.16-24.656-18.967-47.411-18.967S85.566-102.323,108.322-102.323" />
      </g>
    </g>
  </g>
  <g>
  </g>
  <g>
  </g>
  <g>
  </g>
  <g>
  </g>
  <g>
  </g>
  <g>
  </g>
  <g>
  </g>
  <g>
  </g>
  <g>
  </g>
  <g>
  </g>
  <g>
  </g>
  <g>
  </g>
  <g>
  </g>
  <g>
  </g>
  <g>
  </g>
</svg>
