<svg xmlns="http://www.w3.org/2000/svg" viewBox="0 0 800 676.27">
  <defs>
    <style>
      .cls-1 {
        fill: #fff;
      }

      .cls-2 {
        fill: #0097A7;
      }

      .cls-3 {
        fill: #d8d9da;
      }

    </style>
  </defs>
  <title>Artboard 1</title>
  <path class="cls-1"
    d="M229.5 473.79c0 38.26-24.75 63-60.76 63s-60.77-24-60.77-63c0-38.25 24.76-62.26 60.77-62.26s60.76 23.26 60.76 62.26m-27 0c0-24.75-13.51-41.25-33.76-41.25-21 0-33.76 16.5-33.76 41.25s13.5 42 33.76 42c21 0 33.76-17.26 33.76-42" />
  <path class="cls-1"
    d="M320.65 472.86l-26.96 61.69h-19.84l-36.09-120.77h28.51l22.5 83.27 22.88-52.89-9.38-30.38h27l24.01 83.27 26.26-83.27h24.01l-42.28 120.77h-21.44l-19.18-61.69zM410 505.3c9 6 21.75 11.26 36 11.26 11.25 0 18-5.26 18-13.51 0-7.5-4.5-10.69-12-14.25l-17.26-8.26c-16.87-8.06-22.5-19.69-22.5-33 0-22.51 18.76-36 44.26-36a65.12 65.12 0 0 1 30 7.51v24c-9-6.75-18.75-11.25-30.76-11.25-10.88 0-18 5.25-18 13.5 0 9 5.63 12.57 12.76 15.75l16.5 7.51c13.32 6 23.26 15 23.26 32.25 0 23.26-19.51 36-44.26 36a87.15 87.15 0 0 1-33.76-6.75zM628.12 473.79c0 38.26-24.75 63-60.76 63s-60.77-24-60.77-63c0-38.25 24.77-62.26 60.77-62.26s60.76 23.26 60.76 62.26m-27 0c0-24.75-13.5-41.25-33.76-41.25-21 0-33.76 16.5-33.76 41.25s13.5 42 33.76 42c21 0 33.76-17.26 33.76-42" />
  <path class="cls-1"
    d="M669.2 458.23v76.33h-22.51v-104.65l-12.75-16.13h32.26l55.51 71.27v-71.27h22.5v120.78h-14.25l-60.76-76.33zM7.55 413.78h97.53l-7.51 21.01h-30.75v99.77h-25.51v-99.77h-33.76v-21.01zM53.44 666.84c-23.81 0-35.88-12.07-35.88-35.88v-55.3h21.06v54.22c0 13.06 4.71 19.14 14.82 19.14 10.45 0 16.45-6.19 16.45-17v-56.36h18.9v54.76c0 22.81-13.21 36.42-35.35 36.42" />
  <path class="cls-1"
    d="M170.3 665.22l-41.67-52.35v52.35h-18.91v-76.13l-10.62-13.43h26.67l37.89 48.64v-48.64h18.91v89.56h-12.27zM204.81 575.66h21.06v89.57h-21.06zM268.94 665.24l-29.32-89.58h23.39l17.4 56.82 19.46-56.82h20.18l-33.03 89.58h-18.08zM334.29 665.22v-89.56h55.61l-6.36 17.83h-28.19v17.77h28.62l-6.37 17.83h-22.25v18.31h36.17l-6.37 17.82h-50.86zM456.82 665.22l-19.56-31.82h-8v31.82h-21.05v-87.67l1.06-.24a114.31 114.31 0 0 1 26.73-3.31c22.13 0 35.34 10.39 35.34 27.79 0 11-7.14 20.5-14.57 25.49l24.9 37.9zm-14.28-47.49a19.72 19.72 0 0 0 7.2-14.82c0-5.39-1.8-11.59-15.89-11.59h-4.57v26.41zM514.77 666.84a64.34 64.34 0 0 1-24.8-5l-.75-.32-2-21.45 2.36 1.58a46.39 46.39 0 0 0 25.14 7.86c7.25 0 11.59-3.12 11.59-8.35 0-4.5-2.54-6.49-7.85-9l-12.42-5.94c-11.41-5.45-16.95-13.61-16.95-25 0-16.3 13.33-27.25 33.18-27.25a48.44 48.44 0 0 1 22.24 5.56l.71.4v20.78l-2.18-1.63c-7.12-5.34-13.89-7.82-21.31-7.82-7 0-11.58 3.27-11.58 8.34 0 5.33 2.94 7.66 8.36 10.09l11.88 5.4c7.61 3.45 17.61 9.68 17.61 24.5 0 16.3-13.34 27.25-33.19 27.25" />
  <path class="cls-1"
    d="M564.4 575.66h21.06v89.57h-21.06zM621.72 665.22v-71.73h-24.28v-17.83h73.42l-6.36 17.83h-21.72v71.73h-21.06zM703.58 665.22v-36.6l-29.54-52.96h23.61l18.09 32.54 18.07-32.54h21.53l-30.69 52.03v37.53h-21.07z" />
  <path class="cls-2"
    d="M540.25 9.49v205.42c0 31.81-13.17 44.78-44.12 44.78s-44.13-12.97-44.13-44.78v-146.61l-88.24-58.81v207.59c0 112.93 101.39 121.71 132.37 121.71s132.37-8.79 132.37-121.71v-148.78z" />
  <path class="cls-1" d="M99.03 9.49v76.43h88.24v194.06l88.24 58.81v-252.87h88.25v-76.43h-264.73z" />
  <path class="cls-3" d="M363.76 9.49v76.43h-32.9l32.9-76.43z" />
  <path class="cls-1"
    d="M768.43 651.47h-5.17v-2.19h12.81v2.19h-5.15v14.46h-2.49v-14.46zM794.5 652.7l-5.39 13.23h-1.06l-5.39-13.23v13.23h-2.5v-16.66h3.57l4.85 11.97 4.84-11.97h3.57v16.66h-2.49v-13.23z" />
</svg>
